<mxfile host="65bd71144e">
    <diagram id="j66avrtfw4VTAGFs-nh5" name="Page-1">
        <mxGraphModel dx="768" dy="1663" grid="1" gridSize="10" guides="1" tooltips="1" connect="1" arrows="1" fold="1" page="1" pageScale="1" pageWidth="850" pageHeight="1100" math="0" shadow="0">
            <root>
                <mxCell id="0"/>
                <mxCell id="1" parent="0"/>
                <mxCell id="20" value="&lt;h1&gt;&lt;br&gt;&lt;/h1&gt;" style="whiteSpace=wrap;html=1;aspect=fixed;" vertex="1" parent="1">
                    <mxGeometry x="60" y="-780" width="740" height="740" as="geometry"/>
                </mxCell>
                <mxCell id="21" value="" style="rounded=0;whiteSpace=wrap;html=1;" vertex="1" parent="1">
                    <mxGeometry x="60" y="-780" width="740" height="140" as="geometry"/>
                </mxCell>
                <mxCell id="22" value="&lt;h2&gt;LOG&lt;/h2&gt;" style="ellipse;whiteSpace=wrap;html=1;aspect=fixed;" vertex="1" parent="1">
                    <mxGeometry x="100" y="-765" width="110" height="110" as="geometry"/>
                </mxCell>
                <mxCell id="23" value="Servicios" style="rounded=1;whiteSpace=wrap;html=1;" vertex="1" parent="1">
                    <mxGeometry x="500" y="-730" width="110" height="40" as="geometry"/>
                </mxCell>
                <mxCell id="24" value="Cursos" style="rounded=1;whiteSpace=wrap;html=1;" vertex="1" parent="1">
                    <mxGeometry x="380" y="-730" width="110" height="40" as="geometry"/>
                </mxCell>
                <mxCell id="25" value="Nuestro Centro" style="rounded=1;whiteSpace=wrap;html=1;" vertex="1" parent="1">
                    <mxGeometry x="260" y="-730" width="110" height="40" as="geometry"/>
                </mxCell>
                <mxCell id="26" value="Registros" style="rounded=1;whiteSpace=wrap;html=1;" vertex="1" parent="1">
                    <mxGeometry x="620" y="-730" width="110" height="40" as="geometry"/>
                </mxCell>
                <mxCell id="27" value="Noticias:&lt;br&gt;(Descripción de&amp;nbsp;&lt;br&gt;noticia)" style="rounded=0;whiteSpace=wrap;html=1;" vertex="1" parent="1">
                    <mxGeometry x="60" y="-400" width="100" height="360" as="geometry"/>
                </mxCell>
                <mxCell id="28" value="Noticias:&lt;br&gt;(Descripción de&lt;br&gt;noticia)" style="rounded=0;whiteSpace=wrap;html=1;" vertex="1" parent="1">
                    <mxGeometry x="700" y="-400" width="100" height="360" as="geometry"/>
                </mxCell>
                <mxCell id="29" value="" style="rounded=0;whiteSpace=wrap;html=1;" vertex="1" parent="1">
                    <mxGeometry x="60" y="-40" width="740" height="100" as="geometry"/>
                </mxCell>
                <mxCell id="30" value="&lt;h1&gt;TÍTULO&lt;/h1&gt;" style="rounded=0;whiteSpace=wrap;html=1;" vertex="1" parent="1">
                    <mxGeometry x="80" y="-610" width="700" height="60" as="geometry"/>
                </mxCell>
                <mxCell id="31" value="" style="ellipse;whiteSpace=wrap;html=1;aspect=fixed;" vertex="1" parent="1">
                    <mxGeometry x="690" y="-680" width="30" height="30" as="geometry"/>
                </mxCell>
                <mxCell id="32" value="" style="ellipse;whiteSpace=wrap;html=1;aspect=fixed;" vertex="1" parent="1">
                    <mxGeometry x="650" y="-680" width="30" height="30" as="geometry"/>
                </mxCell>
                <mxCell id="33" value="" style="whiteSpace=wrap;html=1;aspect=fixed;" vertex="1" parent="1">
                    <mxGeometry x="725" y="-680" width="30" height="30" as="geometry"/>
                </mxCell>
                <mxCell id="35" value="" style="ellipse;whiteSpace=wrap;html=1;aspect=fixed;" vertex="1" parent="1">
                    <mxGeometry x="760" y="-680" width="30" height="30" as="geometry"/>
                </mxCell>
                <mxCell id="37" value="" style="rounded=1;whiteSpace=wrap;html=1;" vertex="1" parent="1">
                    <mxGeometry x="540" y="-380" width="180" height="20" as="geometry"/>
                </mxCell>
                <mxCell id="38" value="" style="ellipse;whiteSpace=wrap;html=1;aspect=fixed;" vertex="1" parent="1">
                    <mxGeometry x="660" y="-400" width="30" height="30" as="geometry"/>
                </mxCell>
                <mxCell id="39" value="&lt;h6&gt;(Botón de búsqueda)&lt;/h6&gt;" style="rounded=1;whiteSpace=wrap;html=1;" vertex="1" parent="1">
                    <mxGeometry x="550" y="-770" width="210" height="20" as="geometry"/>
                </mxCell>
                <mxCell id="40" value="" style="ellipse;whiteSpace=wrap;html=1;aspect=fixed;" vertex="1" parent="1">
                    <mxGeometry x="760" y="-775" width="30" height="30" as="geometry"/>
                </mxCell>
                <mxCell id="41" value="" style="shape=image;html=1;verticalLabelPosition=bottom;verticalAlign=top;imageAspect=0;image=img/clipart/Gear_128x128.png" vertex="1" parent="1">
                    <mxGeometry x="70" y="-770" width="30" height="30" as="geometry"/>
                </mxCell>
                <mxCell id="42" value="" style="html=1;whiteSpace=wrap;container=1;recursiveResize=0;collapsible=0;" vertex="1" parent="1">
                    <mxGeometry x="80" y="-540" width="700" height="130" as="geometry"/>
                </mxCell>
                <mxCell id="43" value="" style="triangle;html=1;whiteSpace=wrap;" vertex="1" parent="42">
                    <mxGeometry x="645" y="40" width="20" height="30" as="geometry"/>
                </mxCell>
                <mxCell id="44" value="" style="aspect=fixed;perimeter=ellipsePerimeter;html=1;align=center;shadow=0;dashed=0;fontColor=#4277BB;labelBackgroundColor=#ffffff;fontSize=12;spacingTop=3;image;image=img/lib/ibm/miscellaneous/retrieve_rank.svg;" vertex="1" parent="1">
                    <mxGeometry x="760" y="-775" width="30" height="30" as="geometry"/>
                </mxCell>
                <mxCell id="47" value="" style="html=1;verticalLabelPosition=bottom;labelBackgroundColor=#ffffff;verticalAlign=top;shadow=0;dashed=0;strokeWidth=1;shape=mxgraph.ios7.misc.iphone;strokeColor=#c0c0c0;" vertex="1" parent="1">
                    <mxGeometry x="670" y="-395" width="10" height="20" as="geometry"/>
                </mxCell>
                <mxCell id="49" value="" style="whiteSpace=wrap;html=1;aspect=fixed;" vertex="1" parent="1">
                    <mxGeometry x="70" y="-330" width="80" height="80" as="geometry"/>
                </mxCell>
                <mxCell id="50" value="" style="whiteSpace=wrap;html=1;aspect=fixed;" vertex="1" parent="1">
                    <mxGeometry x="70" y="-170" width="80" height="80" as="geometry"/>
                </mxCell>
                <mxCell id="51" value="" style="whiteSpace=wrap;html=1;aspect=fixed;" vertex="1" parent="1">
                    <mxGeometry x="710" y="-340" width="80" height="80" as="geometry"/>
                </mxCell>
                <mxCell id="52" value="" style="whiteSpace=wrap;html=1;aspect=fixed;" vertex="1" parent="1">
                    <mxGeometry x="710" y="-180" width="80" height="80" as="geometry"/>
                </mxCell>
                <mxCell id="53" value="Más Información" style="rounded=0;whiteSpace=wrap;html=1;" vertex="1" parent="1">
                    <mxGeometry x="450" y="-20" width="120" height="60" as="geometry"/>
                </mxCell>
                <mxCell id="54" value="Datos de Contacto" style="rounded=0;whiteSpace=wrap;html=1;" vertex="1" parent="1">
                    <mxGeometry x="615" y="-20" width="120" height="60" as="geometry"/>
                </mxCell>
                <mxCell id="55" value="LOGOS de PATROCINADORES" style="rounded=0;whiteSpace=wrap;html=1;" vertex="1" parent="1">
                    <mxGeometry x="95" y="-30" width="265" height="80" as="geometry"/>
                </mxCell>
            </root>
        </mxGraphModel>
    </diagram>
</mxfile>